<svg xmlns="http://www.w3.org/2000/svg" viewBox="0 0 40 40" fill="none">
  <rect width="40" height="40" rx="10" fill="#10a37f"/>
  <path d="M20 8C13.373 8 8 13.373 8 20s5.373 12 12 12 12-5.373 12-12S26.627 8 20 8zm0 3a9 9 0 1 1 0 18A9 9 0 0 1 20 11z" fill="white" opacity="0.3"/>
  <path d="M20 7c-1.2 0-2.4.16-3.54.47A5.5 5.5 0 0 0 12 12.5v.5a5.5 5.5 0 0 0 2.74 4.77A10.95 10.95 0 0 0 14 20c0 6.075 4.925 11 11 11a10.98 10.98 0 0 0 7-2.52V28a5.5 5.5 0 0 0-2.04-4.27A10.95 10.95 0 0 0 31 20C31 13.373 26.075 8.5 20 8.5" fill="white" opacity="0.15"/>
  <path d="M25.5 15.5a1 1 0 0 1 1 1v3.25l2.6-1.5a1 1 0 1 1 1 1.732l-2.6 1.5 2.6 1.5a1 1 0 1 1-1 1.732l-2.6-1.5V26.5a1 1 0 1 1-2 0v-3.25l-2.6 1.5a1 1 0 1 1-1-1.732l2.6-1.5-2.6-1.5a1 1 0 1 1 1-1.732l2.6 1.5V16.5a1 1 0 0 1 1-1z" fill="white"/>
  <path d="M15 13a1 1 0 0 1 1 1v3.25l2.6-1.5a1 1 0 1 1 1 1.732L17 19l2.6 1.5a1 1 0 1 1-1 1.732L16 20.732V24a1 1 0 1 1-2 0v-3.268l-2.6 1.5a1 1 0 1 1-1-1.732L13 19l-2.6-1.5a1 1 0 1 1 1-1.732L14 17.25V14a1 1 0 0 1 1-1z" fill="white" opacity="0.85"/>
</svg>
